# xmcd
#
# Track frame offsets: 
#        150
#        20496
#        49514
#        72577
#        100260
#        134329
#        158420
#        181142
#        202379
#
# Disc length: 2904 seconds
#
# Revision: 0
# Processed by: cddbd v1.5.2PL0 Copyright (c) Steve Scherf et al.
# Submitted via: ExactAudioCopy v0.95b4
#
DISCID=7a0b5609
DTITLE=The Whispers - The Whispers
DYEAR=1980
DGENRE=R&B
TTITLE0=A Song For Donny
TTITLE1=My Girl
TTITLE2=Lady
TTITLE3=Can You Do The Boogie
TTITLE4=And The Beat Goes On
TTITLE5=I Love You
TTITLE6=Out The Box
TTITLE7=Welcome Into My Dream
TTITLE8=And The Beat Goes On (Radio Edit)
EXTD=
EXTT0=
EXTT1=
EXTT2=
EXTT3=
EXTT4=
EXTT5=
EXTT6=
EXTT7=
EXTT8=
PLAYORDER=
